<?xml version="1.0" standalone="no"?>
<!DOCTYPE svg PUBLIC "-//W3C//DTD SVG 20010904//EN"
 "http://www.w3.org/TR/2001/REC-SVG-20010904/DTD/svg10.dtd">
<svg version="1.0" xmlns="http://www.w3.org/2000/svg"
 width="526.000000pt" height="474.000000pt" viewBox="0 0 526.000000 474.000000"
 preserveAspectRatio="xMidYMid meet">

<g transform="translate(0.000000,474.000000) scale(0.100000,-0.100000)"
fill="#000000" stroke="none">
<path d="M3095 3949 c-16 -3 -57 -7 -90 -8 -68 -1 -107 -10 -100 -21 3 -5 -5
-6 -17 -2 -14 3 -19 1 -14 -6 4 -7 -4 -14 -20 -18 -16 -4 -29 -2 -34 6 -13 21
-145 3 -179 -25 -15 -13 -40 -27 -56 -31 -33 -8 -124 -94 -118 -111 3 -7 -2
-13 -11 -13 -8 0 -13 -6 -11 -12 9 -26 -55 -81 -108 -93 -41 -9 -55 -18 -79
-52 -27 -36 -28 -43 -16 -62 11 -19 11 -24 -2 -34 -15 -12 -48 -65 -78 -127
-9 -19 -23 -39 -29 -43 -7 -4 -13 -15 -13 -22 0 -8 -4 -15 -8 -15 -24 0 -72
-59 -78 -96 -3 -21 -8 -42 -10 -45 -2 -3 1 -55 6 -115 15 -163 21 -203 62
-374 32 -132 33 -203 4 -258 l-14 -26 -16 33 c-10 18 -23 31 -29 28 -17 -5
-20 -73 -6 -140 11 -54 29 -87 29 -53 0 22 33 76 48 76 18 0 15 -44 -7 -87
-13 -26 -17 -51 -14 -80 5 -46 23 -59 23 -17 0 14 5 57 12 96 11 67 12 70 27
51 9 -11 22 -18 29 -15 6 2 12 -2 12 -10 0 -16 37 -41 50 -33 5 3 -2 31 -15
62 -14 30 -25 57 -25 59 0 2 15 4 34 4 35 0 55 13 37 24 -5 3 -35 7 -66 7 -31
1 -52 5 -46 8 6 4 7 12 1 21 -13 20 -13 87 0 95 6 3 10 12 10 18 0 8 -3 8 -9
-1 -7 -11 -9 -11 -14 2 -3 8 -2 18 3 21 6 4 6 14 -1 27 -13 24 -5 173 9 192 5
6 12 34 15 63 3 29 14 65 24 80 17 27 17 28 -2 13 -11 -9 -16 -10 -11 -3 11
19 19 53 21 93 2 19 6 43 9 53 3 9 8 24 11 32 3 11 12 14 29 9 21 -5 23 -3 19
19 -5 27 23 91 37 82 4 -3 10 -1 12 4 4 11 132 71 153 71 8 0 15 5 15 10 0 13
47 13 55 0 3 -6 15 -5 31 2 16 8 28 8 32 2 4 -5 21 -10 37 -10 95 -3 276 -24
297 -35 9 -5 33 -9 52 -9 20 0 36 -4 36 -10 0 -5 18 -10 39 -10 25 0 41 -5 45
-15 3 -8 11 -15 18 -15 13 0 32 -9 101 -48 20 -12 37 -20 37 -17 0 9 96 -29
108 -43 10 -13 12 -13 12 -1 1 10 3 10 11 -3 5 -10 16 -15 24 -12 8 4 15 1 15
-7 0 -7 3 -10 6 -6 9 8 34 -18 34 -36 0 -22 28 -29 33 -9 3 12 6 8 12 -12 6
-22 4 -32 -9 -41 -9 -7 -16 -16 -16 -20 0 -4 -11 -21 -25 -37 l-26 -31 21 -19
c24 -22 26 -30 5 -22 -8 4 -15 2 -15 -4 0 -13 44 -24 48 -12 2 6 8 10 13 10 6
0 7 -6 1 -16 -11 -20 -4 -54 10 -54 6 0 8 -9 5 -21 -4 -16 -2 -19 10 -15 9 4
21 -1 29 -13 9 -13 21 -17 35 -14 19 5 20 4 8 -15 -8 -13 -21 -19 -38 -17 -16
2 -33 -5 -44 -16 -10 -10 -31 -19 -47 -19 -16 0 -35 -6 -42 -13 -7 -8 -33 -13
-60 -12 -25 0 -45 -2 -43 -5 2 -3 -16 -7 -39 -8 -53 -2 -88 -15 -113 -41 -12
-13 -34 -21 -63 -22 -25 -2 -48 -7 -53 -13 -5 -7 -12 -5 -21 7 -7 9 -18 17
-25 17 -6 0 -11 6 -11 14 0 8 -10 22 -22 30 -12 9 -19 16 -14 16 5 0 3 6 -3
14 -7 8 -21 12 -33 8 -14 -3 -19 -1 -14 6 10 17 -9 15 -24 -2 -8 -11 -18 -12
-35 -6 -13 5 -26 6 -29 3 -3 -4 -6 1 -6 10 0 11 -9 17 -22 18 -13 0 -34 3 -48
5 -48 9 -180 10 -180 2 0 -4 5 -8 12 -8 6 0 8 -3 5 -7 -4 -3 -17 2 -29 13 -19
17 -21 17 -15 2 4 -11 1 -18 -6 -19 -29 -2 -53 -6 -74 -13 -12 -4 -24 -2 -28
4 -4 6 -3 10 2 9 20 -3 31 2 37 18 6 16 5 15 -12 -1 -17 -15 -21 -15 -34 -2
-16 16 -103 12 -125 -5 -7 -6 -16 -8 -21 -5 -6 3 -15 -1 -22 -9 -9 -10 -9 -15
-1 -15 6 0 11 -5 11 -11 0 -6 -7 -9 -15 -5 -24 9 -18 -21 7 -38 22 -16 22 -16
-11 -16 -33 0 -34 -1 -28 -37 3 -21 3 -32 0 -25 -2 6 -9 12 -14 12 -4 0 -6 -7
-3 -15 4 -9 19 -15 38 -16 26 0 28 -2 11 -9 -11 -5 -14 -9 -7 -9 6 -1 12 -7
12 -14 0 -7 9 -23 21 -35 11 -12 18 -26 15 -31 -3 -5 9 -16 28 -25 39 -18 50
-20 41 -6 -3 6 -1 10 5 10 7 0 9 -8 5 -19 -8 -26 42 -62 74 -54 12 3 33 0 46
-7 13 -7 35 -10 49 -8 14 3 26 1 26 -3 0 -5 -15 -10 -32 -10 -23 -1 -26 -3
-11 -6 25 -5 133 13 144 25 5 4 -28 7 -71 8 -75 1 -193 31 -162 42 6 2 12 14
12 27 0 24 33 55 57 55 8 0 13 -12 13 -28 0 -16 9 -38 20 -50 19 -20 30 -22
146 -22 108 0 125 -2 120 -15 -3 -8 -1 -15 5 -15 7 0 9 -12 7 -29 -2 -17 -1
-28 4 -25 4 3 19 -6 32 -19 l25 -25 -47 -57 c-69 -85 -88 -96 -178 -105 l-79
-7 78 -2 c51 -1 88 4 106 14 28 14 112 118 166 205 45 74 64 90 105 90 55 0
73 -26 76 -107 2 -36 7 -69 13 -72 5 -4 11 -18 13 -31 2 -14 7 -30 11 -37 4
-6 7 -24 6 -40 0 -15 5 -48 11 -72 9 -39 9 -46 -9 -62 -10 -10 -24 -34 -31
-53 -10 -32 -15 -35 -63 -42 -65 -10 -76 -7 -104 18 -19 17 -30 20 -69 14 -25
-3 -63 -16 -85 -28 l-38 -21 40 -45 c44 -51 47 -62 19 -69 -11 -3 -17 -9 -14
-14 3 -5 -1 -16 -10 -24 -9 -9 -17 -11 -21 -5 -10 16 -25 12 -26 -7 0 -16 -1
-16 -8 1 -7 18 -8 18 -14 2 -4 -10 -12 -14 -18 -10 -21 13 -63 13 -78 1 -10
-8 -13 -9 -8 -1 4 7 0 14 -8 18 -16 6 -29 -9 -20 -23 3 -5 0 -13 -6 -17 -7 -4
-9 -3 -6 3 4 6 0 13 -8 17 -8 3 -17 1 -20 -4 -3 -5 -11 -7 -18 -5 -18 7 -60
-63 -54 -91 2 -13 1 -24 -3 -24 -5 0 -6 -9 -3 -20 3 -12 0 -20 -7 -20 -6 0
-10 -6 -8 -12 3 -7 -1 -19 -9 -26 -21 -21 -87 -3 -91 25 -2 15 -8 20 -19 16
-10 -4 -7 7 11 33 15 21 29 46 32 55 3 9 17 22 30 28 13 6 24 15 24 20 0 6 7
8 15 5 20 -8 19 13 -1 24 -11 6 -13 11 -5 16 6 4 11 16 11 27 0 12 -4 17 -11
13 -8 -4 -9 1 -4 16 6 18 4 22 -8 17 -8 -3 -19 -1 -24 4 -7 7 -22 0 -44 -18
-19 -15 -28 -20 -20 -10 18 22 2 36 -33 30 -17 -4 -22 -11 -20 -31 1 -15 -1
-19 -3 -9 -6 24 -18 21 -31 -8 -6 -14 -17 -25 -24 -26 -7 -1 -3 -4 10 -8 l24
-6 -26 -24 -26 -24 0 36 c0 33 -3 37 -25 37 -20 0 -25 -5 -25 -24 0 -23 -16
-44 -26 -34 -2 3 -6 38 -9 79 -5 76 -22 162 -24 123 -1 -12 -7 -24 -15 -27
-14 -6 -26 50 -26 122 0 28 3 32 10 21 8 -11 8 -7 3 15 -4 17 -7 56 -6 89 1
32 -2 55 -7 50 -10 -11 -24 -124 -21 -176 1 -20 -3 -39 -8 -42 -6 -4 -4 -19 5
-41 8 -19 14 -60 14 -90 0 -31 5 -87 11 -126 7 -38 9 -72 6 -76 -4 -3 -26 2
-50 11 -70 27 -89 22 -137 -34 -45 -53 -54 -56 -127 -39 -142 33 -183 44 -232
66 -29 12 -68 23 -86 23 -35 0 -85 -34 -63 -43 8 -3 5 -6 -6 -6 -11 -1 -27 -8
-36 -16 -26 -23 -85 -20 -285 19 -187 36 -251 39 -261 13 -3 -8 -30 -11 -87
-10 -52 2 -77 -1 -67 -7 21 -13 6 -23 -17 -11 -47 25 -177 48 -187 33 -10 -16
128 -281 209 -402 83 -124 169 -233 269 -338 79 -83 101 -98 120 -83 7 6 17 7
21 3 5 -4 5 1 2 10 -3 10 -2 20 4 24 7 4 6 10 -1 19 -8 10 -7 14 2 18 10 4 10
7 -1 15 -16 11 -7 32 14 32 20 0 29 -19 16 -34 -6 -7 -9 -21 -5 -30 3 -9 1
-23 -6 -31 -9 -10 -9 -15 -1 -15 6 0 11 -4 11 -10 0 -5 -11 -10 -24 -10 -30 0
-44 -18 -21 -26 9 -4 24 1 34 10 31 28 77 13 52 -18 -6 -7 -8 -16 -4 -19 3 -4
1 -7 -4 -7 -14 0 -10 -33 5 -38 6 -2 27 -19 47 -38 98 -93 366 -243 590 -332
114 -45 241 -85 256 -80 7 2 12 58 13 139 2 77 8 144 15 157 6 11 11 25 10 29
-1 4 -1 33 0 63 l1 55 15 -29 c18 -34 19 -39 4 -30 -7 4 -2 -6 10 -23 24 -32
48 -158 59 -308 l7 -90 75 -12 c41 -7 98 -12 125 -12 28 0 91 -5 140 -11 103
-12 373 1 514 26 232 40 426 105 656 219 159 79 364 206 372 232 2 6 -5 14
-16 18 -11 3 -35 28 -54 54 -36 49 -200 166 -317 225 -30 15 -60 33 -67 39
-11 11 -43 109 -43 131 0 6 23 26 51 44 104 69 181 158 244 283 26 51 78 218
90 287 4 24 22 81 41 127 19 47 43 135 55 197 11 62 27 148 36 190 11 51 14
96 9 134 -11 93 -15 104 -43 104 -43 0 -54 21 -43 82 18 93 50 200 87 291 45
111 55 148 59 217 6 99 16 155 30 171 13 14 12 23 -7 70 -12 30 -23 71 -24 92
-2 23 -12 48 -25 62 -19 20 -22 31 -16 65 6 36 3 44 -21 65 -29 25 -108 104
-190 190 -27 28 -82 70 -122 94 -41 24 -97 65 -125 92 -92 89 -119 97 -423
129 -45 4 -86 10 -90 12 -4 3 -21 1 -38 -3z m-178 -65 c-3 -3 -12 -4 -19 -1
-8 3 -5 6 6 6 11 1 17 -2 13 -5z m-2 -44 c-3 -5 -12 -10 -18 -10 -7 0 -6 4 3
10 19 12 23 12 15 0z m-35 -27 c0 -13 -3 -14 -8 -5 -6 9 -13 8 -28 -6 -18 -16
-24 -18 -56 -13 -14 3 59 39 80 40 6 1 12 -7 12 -16z m180 9 c0 -12 -129 -66
-137 -58 -4 3 1 6 10 6 10 0 17 4 17 8 0 5 18 15 41 22 22 8 42 17 45 22 7 11
24 10 24 0z m-312 -72 c-41 -26 -65 -30 -52 -8 11 18 66 46 81 41 9 -3 -1 -15
-29 -33z m325 23 c-7 -2 -21 -2 -30 0 -10 3 -4 5 12 5 17 0 24 -2 18 -5z m-83
-17 c-14 -13 -71 -35 -60 -23 7 7 63 37 70 37 2 0 -2 -6 -10 -14z m45 -8 c-11
-6 -22 -14 -25 -18 -3 -3 -14 -10 -25 -14 -17 -6 -16 -3 5 18 14 14 34 25 45
25 l20 0 -20 -11z m15 -32 c0 -3 -4 -8 -10 -11 -5 -3 -10 -1 -10 4 0 6 5 11
10 11 6 0 10 -2 10 -4z m140 -51 c-7 -9 -15 -13 -19 -10 -3 3 1 10 9 15 21 14
24 12 10 -5z m-205 -5 c-3 -5 -18 -10 -33 -10 -21 0 -24 2 -12 10 20 13 53 13
45 0z m-28 -26 c-3 -3 -12 -4 -19 -1 -8 3 -5 6 6 6 11 1 17 -2 13 -5z m383 3
c0 -8 -38 -47 -45 -47 -5 0 2 11 15 25 22 24 30 29 30 22z m-430 -17 c-8 -5
-19 -10 -25 -10 -5 0 -3 5 5 10 8 5 20 10 25 10 6 0 3 -5 -5 -10z m240 -11 c0
-5 -4 -8 -9 -5 -5 3 -14 -1 -21 -9 -10 -12 -10 -15 0 -15 8 0 11 -3 7 -6 -3
-3 -11 -3 -17 1 -8 5 -6 13 6 26 19 21 34 25 34 8z m125 -29 c-3 -5 -16 -15
-28 -21 -21 -10 -21 -9 2 10 25 23 36 27 26 11z m-295 -15 c0 -2 -6 -5 -13 -8
-8 -3 -14 1 -14 8 0 7 6 11 14 8 7 -3 13 -6 13 -8z m-790 -519 c0 -3 -4 -8
-10 -11 -5 -3 -10 -1 -10 4 0 6 5 11 10 11 6 0 10 -2 10 -4z m1390 -96 c0 -5
-7 -10 -15 -10 -8 0 -15 5 -15 10 0 6 7 10 15 10 8 0 15 -4 15 -10z m-80 -110
c0 -5 -5 -10 -11 -10 -5 0 -7 5 -4 10 3 6 8 10 11 10 2 0 4 -4 4 -10z m87
-236 c-3 -3 -12 -4 -19 -1 -8 3 -5 6 6 6 11 1 17 -2 13 -5z m-1162 -14 c-3 -5
-12 -10 -18 -10 -7 0 -6 4 3 10 19 12 23 12 15 0z m15 -71 c0 -6 -7 -9 -15 -5
-8 3 -15 1 -15 -5 0 -6 -5 -7 -11 -3 -8 4 -7 9 2 15 19 12 39 11 39 -2z m76
-40 c3 -5 29 -10 57 -10 l52 -2 -45 -8 c-64 -11 -102 -11 -95 1 3 6 -3 10 -15
10 -12 0 -19 -4 -16 -9 6 -9 -142 -36 -151 -28 -6 7 59 23 106 25 24 2 24 2 5
16 -17 14 -14 15 39 14 31 0 60 -4 63 -9z m312 -26 c-10 -2 -26 -2 -35 0 -10
3 -2 5 17 5 19 0 27 -2 18 -5z m-213 -33 c-3 -5 -25 -10 -48 -10 -23 0 -60 -5
-82 -11 -79 -21 -90 -19 -40 6 37 18 66 25 113 25 40 0 61 -4 57 -10z m466
-33 c11 -10 17 -22 14 -27 -7 -11 -91 -12 -118 -1 -16 6 -12 10 20 27 44 24
56 24 84 1z m-141 -17 c0 -12 -37 -12 -65 0 -15 7 -10 9 23 9 23 1 42 -3 42
-9z m332 -12 c-9 -9 -42 -1 -42 12 0 4 12 5 26 2 15 -3 22 -8 16 -14z m-533
-59 c-5 -10 -16 -19 -24 -19 -11 0 -12 6 -3 30 8 24 13 28 24 19 10 -8 11 -16
3 -30z m390 25 c2 -2 1 -9 -2 -17 -8 -21 -105 -30 -124 -12 -24 24 -75 -17
-57 -46 3 -5 -1 -9 -10 -9 -8 0 -22 -3 -31 -6 -14 -6 -14 0 5 37 12 24 24 46
26 48 14 16 176 20 193 5z m764 -4 c-3 -12 -8 -19 -11 -16 -5 6 5 36 12 36 2
0 2 -9 -1 -20z m-996 -42 c-8 -21 -22 -34 -35 -36 -31 -5 -27 12 9 42 39 33
42 33 26 -6z m556 -10 c6 -40 4 -42 -22 -28 -33 17 -26 55 10 59 4 1 9 -14 12
-31z m223 19 c4 -4 0 -15 -9 -25 -10 -10 -15 -21 -12 -24 3 -2 -11 -9 -30 -15
-36 -11 -45 -4 -21 16 8 7 17 22 20 35 5 22 36 30 52 13z m-115 -24 c13 -16
12 -17 -3 -4 -17 13 -22 21 -14 21 2 0 10 -8 17 -17z m-151 -43 c22 -7 21 -8
-12 -9 -20 -1 -40 4 -43 9 -7 12 19 12 55 0z m73 -17 c-7 -2 -19 -2 -25 0 -7
3 -2 5 12 5 14 0 19 -2 13 -5z m92 -2 c-3 -6 2 -14 11 -19 15 -9 15 -10 -4
-16 -31 -10 -44 1 -32 25 6 10 15 19 21 19 6 0 8 -4 4 -9z m314 -58 c20 -8 44
-19 54 -24 13 -7 17 -5 17 8 0 9 3 14 6 11 3 -3 0 -24 -5 -46 -12 -44 -24 -51
-132 -78 -60 -14 -66 -18 -61 -39 3 -17 -2 -25 -20 -31 -12 -4 -29 -7 -37 -5
-9 2 -12 -3 -8 -13 7 -19 -38 -57 -59 -49 -10 4 -14 -4 -14 -30 0 -22 6 -37
15 -41 8 -3 15 -12 15 -20 0 -10 -6 -13 -15 -10 -9 4 -15 0 -15 -10 0 -9 5
-16 11 -16 8 0 9 -4 0 -13 -6 -8 -9 -16 -6 -19 3 -3 -24 -15 -60 -27 l-66 -21
-50 42 c-27 24 -58 57 -68 73 -25 40 -48 134 -36 143 13 9 16 42 4 42 -5 0 -9
7 -9 15 0 8 -6 15 -12 16 -9 0 -9 2 1 6 11 4 8 10 -10 24 l-24 19 28 0 c20 0
27 5 27 20 0 11 5 20 10 20 5 0 9 3 8 8 -3 15 15 42 29 42 9 0 11 -5 7 -12 -6
-10 -4 -10 8 0 13 10 24 10 63 -3 26 -9 53 -14 62 -11 8 3 27 -1 44 -9 16 -9
29 -13 29 -10 0 3 15 -1 34 -9 19 -8 37 -12 40 -8 3 3 6 0 6 -7 0 -9 17 -12
57 -10 37 2 58 -1 61 -9 6 -18 27 -14 47 8 18 20 17 20 -27 20 -32 0 -50 6
-63 20 -25 27 -13 52 22 45 l28 -6 -25 16 c-25 16 -25 16 14 10 21 -4 54 -13
75 -22z m-509 -5 c0 -21 -25 -24 -33 -4 -7 17 -2 23 18 23 8 0 15 -9 15 -19z
m380 -208 c0 -5 -5 -10 -11 -10 -5 0 -7 5 -4 10 3 6 8 10 11 10 2 0 4 -4 4
-10z m-458 -33 c22 -18 25 -28 21 -55 -4 -24 -13 -36 -31 -43 -29 -11 -33 -7
-52 51 -22 68 9 92 62 47z m-862 -252 c0 -11 -40 -48 -46 -43 -9 10 15 48 31
48 8 0 15 -2 15 -5z m460 -75 c0 -5 -2 -10 -4 -10 -3 0 -8 5 -11 10 -3 6 -1
10 4 10 6 0 11 -4 11 -10z m-220 -10 c0 -5 -5 -10 -11 -10 -5 0 -7 5 -4 10 3
6 8 10 11 10 2 0 4 -4 4 -10z m433 -34 c26 -20 21 -33 -19 -40 -40 -8 -94 1
-94 15 0 5 1 9 3 9 1 0 20 7 42 15 49 17 46 17 68 1z m-833 -8 c0 -7 -4 -19
-9 -27 -6 -9 -8 -5 -8 13 0 14 3 26 8 26 5 0 9 -6 9 -12z m90 -48 c0 -5 -2
-10 -4 -10 -3 0 -8 5 -11 10 -3 6 -1 10 4 10 6 0 11 -4 11 -10z m-36 -9 c3 -5
-1 -11 -9 -14 -9 -4 -12 -1 -8 9 6 16 10 17 17 5z m-1804 -42 c0 -5 -7 -9 -15
-9 -15 0 -20 12 -9 23 8 8 24 -1 24 -14z m865 1 c3 -6 -1 -7 -9 -4 -18 7 -21
14 -7 14 6 0 13 -4 16 -10z m1755 0 c0 -5 -4 -10 -9 -10 -5 0 -16 -3 -25 -6
-11 -4 -16 -1 -16 10 0 10 9 16 25 16 14 0 25 -4 25 -10z m-2543 -6 c-3 -3
-12 -4 -19 -1 -8 3 -5 6 6 6 11 1 17 -2 13 -5z m131 -14 c15 -1 15 -2 0 -11
-19 -11 -25 -39 -8 -39 6 0 10 4 10 9 0 5 14 11 30 13 17 3 30 1 30 -4 0 -4
-9 -8 -19 -8 -11 0 -23 -5 -27 -12 -5 -7 -2 -8 7 -3 8 4 7 0 -3 -10 -10 -11
-19 -17 -21 -14 -2 2 -18 23 -36 47 -18 23 -28 42 -23 42 5 0 13 -7 16 -16 7
-17 27 -10 22 9 -1 7 -1 9 1 5 3 -5 12 -8 21 -8z m-164 -5 c3 -8 12 -12 21 -9
24 10 17 -12 -10 -30 -19 -12 -30 -14 -43 -7 -16 10 -16 10 1 11 9 0 17 4 17
10 0 5 -7 7 -15 4 -9 -4 -15 0 -15 9 0 14 12 24 31 26 4 1 9 -6 13 -14z m331
-4 c-3 -6 -16 -11 -28 -11 -21 0 -21 1 3 13 27 15 36 14 25 -2z m1938 9 c23
-5 106 -19 184 -31 77 -12 146 -24 151 -28 19 -12 1 -57 -31 -76 -35 -21 -148
-23 -260 -5 -36 5 -73 7 -83 3 -11 -4 -15 -2 -11 4 4 6 -3 8 -18 6 -17 -4 -22
-10 -18 -22 10 -26 40 -51 63 -51 11 0 20 -3 20 -8 0 -19 80 -39 229 -57 105
-12 149 -34 165 -80 5 -14 -1 -11 -19 10 l-25 30 15 -37 c19 -47 19 -52 -1
-44 -12 4 -14 1 -9 -13 7 -24 -11 -37 -31 -20 -8 6 -17 9 -21 5 -3 -3 0 -6 8
-6 10 -1 8 -4 -4 -11 -14 -8 -23 -7 -38 6 -15 15 -21 15 -34 5 -13 -11 -15 -8
-16 16 -1 22 -3 24 -6 8 -2 -12 -13 -24 -24 -27 -11 -3 -17 -1 -13 5 4 6 -3 5
-15 -2 -12 -6 -30 -8 -40 -5 -11 3 -26 -1 -34 -10 -9 -8 -20 -15 -26 -15 -6 0
-11 -6 -11 -12 0 -9 -4 -8 -10 2 -8 12 -10 12 -10 1 0 -11 -3 -11 -15 -1 -8 7
-24 10 -35 7 -11 -3 -20 -1 -20 4 0 5 -4 9 -10 9 -5 0 -10 -7 -10 -15 0 -18
-26 -9 -53 18 -20 20 -21 20 -27 1 -7 -18 -7 -18 -14 3 -4 13 -4 28 0 35 6 9
3 9 -9 -1 -15 -12 -18 -10 -26 10 -8 19 -10 20 -10 6 -1 -10 -6 -15 -12 -11
-6 3 -8 15 -6 26 5 17 2 19 -18 16 -22 -5 -23 -2 -18 24 5 25 3 27 -13 21 -17
-6 -17 -5 -5 11 13 15 12 18 -7 23 -12 3 -22 10 -22 15 0 5 5 6 12 2 7 -4 8
-3 4 4 -4 6 1 23 10 38 14 21 15 27 4 34 -7 4 -20 6 -28 2 -10 -4 -13 -1 -8 7
5 7 14 10 21 7 7 -2 16 2 19 10 10 26 7 36 -9 30 -8 -3 -15 -1 -15 4 0 6 9 10
20 10 13 0 20 7 20 20 0 12 16 29 45 46 25 14 45 30 45 35 0 5 16 9 35 7 19
-1 37 1 41 5 10 10 37 9 87 -3z m-2193 -4 c0 -11 -19 -15 -25 -6 -3 5 1 10 9
10 9 0 16 -2 16 -4z m200 -25 c0 -4 -8 -7 -19 -7 -11 0 -17 6 -14 13 5 12 33
7 33 -6z m1000 5 c0 -2 -7 -7 -16 -10 -8 -3 -12 -2 -9 4 6 10 25 14 25 6z
m490 -10 c0 -3 -4 -8 -10 -11 -5 -3 -10 -1 -10 4 0 6 5 11 10 11 6 0 10 -2 10
-4z m-1712 -24 c2 -7 -5 -12 -16 -12 -11 0 -22 -6 -25 -12 -2 -7 -8 -10 -12
-6 -10 10 25 50 39 45 5 -2 12 -9 14 -15z m298 -9 c-10 -10 -19 5 -10 18 6 11
8 11 12 0 2 -7 1 -15 -2 -18z m854 18 c0 -11 -26 -21 -53 -20 -19 1 -18 3 8
14 36 17 45 18 45 6z m-895 -11 c-3 -5 -10 -10 -16 -10 -5 0 -9 5 -9 10 0 6 7
10 16 10 8 0 12 -4 9 -10z m252 -6 c-3 -3 -12 -4 -19 -1 -8 3 -5 6 6 6 11 1
17 -2 13 -5z m512 -12 c-13 -9 -24 -11 -28 -5 -3 6 -13 12 -21 15 -8 3 4 5 28
5 41 0 42 0 21 -15z m38 -17 c-9 -7 -13 -16 -9 -21 4 -4 -1 -2 -11 6 -18 13
-18 15 -1 27 9 7 21 10 27 6 6 -4 3 -11 -6 -18z m-888 -11 c-9 -8 -23 -12 -32
-8 -26 10 -20 22 8 16 16 -3 25 0 25 9 0 7 3 9 7 5 4 -3 0 -13 -8 -22z m931
12 c0 -3 -4 -8 -10 -11 -5 -3 -10 -1 -10 4 0 6 5 11 10 11 6 0 10 -2 10 -4z
m326 -78 c-1 -46 1 -126 2 -178 5 -116 0 -439 -5 -390 -2 19 -7 44 -12 55 -19
47 -32 96 -27 104 4 5 0 12 -6 14 -10 4 -10 8 1 15 9 7 10 11 2 13 -7 3 -14
20 -16 39 -2 19 -4 35 -5 35 -1 0 -4 13 -6 28 -3 19 -1 26 6 22 5 -3 10 0 10
9 0 8 -6 17 -12 19 -10 4 -10 7 0 15 8 5 11 20 8 35 -2 15 -1 29 4 32 6 3 6
15 0 29 -5 15 -5 27 1 33 6 6 12 19 14 29 2 11 4 19 5 19 1 0 3 15 6 33 4 30
20 72 28 72 2 0 3 -37 2 -82z m468 73 c15 -6 16 -10 7 -16 -8 -4 -16 -2 -21 4
-5 9 -11 8 -24 -4 -9 -9 -14 -21 -11 -26 4 -5 1 -9 -6 -9 -10 0 -10 -3 -1 -12
14 -14 16 -28 2 -28 -14 0 -62 51 -55 59 4 3 13 -3 21 -13 14 -19 14 -19 15 2
1 12 3 27 4 32 1 6 3 12 4 15 2 7 43 5 65 -4z m-1664 -24 c0 -7 9 -23 20 -34
17 -19 18 -22 2 -28 -14 -5 -14 -7 -2 -15 10 -7 11 -10 2 -10 -7 0 -26 14 -44
30 -17 17 -35 30 -40 30 -15 0 3 21 26 30 30 12 36 12 36 -3z m1675 -27 c-3
-5 -12 -10 -18 -10 -7 0 -6 4 3 10 19 12 23 12 15 0z m-390 -40 c-3 -6 -11
-10 -18 -10 -8 0 -8 3 0 11 6 6 9 19 6 28 -4 13 -2 13 7 -2 6 -9 8 -22 5 -27z
m30 30 c3 -5 1 -10 -4 -10 -6 0 -11 5 -11 10 0 6 2 10 4 10 3 0 8 -4 11 -10z
m-75 -20 c-20 -13 -33 -13 -25 0 3 6 14 10 23 10 15 0 15 -2 2 -10z m-245 -20
c3 -5 1 -10 -4 -10 -6 0 -11 5 -11 10 0 6 2 10 4 10 3 0 8 -4 11 -10z m-1058
-42 c-3 -8 -6 -5 -6 6 -1 11 2 17 5 13 3 -3 4 -12 1 -19z m1043 18 c0 -11 -19
-15 -25 -6 -3 5 1 10 9 10 9 0 16 -2 16 -4z m45 -6 c4 -6 2 -17 -4 -24 -7 -8
-11 -18 -10 -22 3 -20 -2 -34 -12 -34 -5 0 -7 5 -4 10 4 6 2 17 -5 25 -8 10
-8 19 0 34 12 23 25 27 35 11z m265 -4 c0 -7 -7 -19 -15 -26 -16 -13 -20 -3
-9 24 8 20 24 21 24 2z m-1206 -14 c3 -5 -8 -6 -25 -4 -17 3 -29 0 -29 -7 0
-6 9 -11 19 -11 11 0 23 -5 27 -12 4 -7 3 -8 -4 -4 -8 5 -12 -1 -12 -14 0 -17
4 -20 23 -15 19 5 19 4 5 -5 -10 -6 -22 -18 -28 -28 -10 -15 -11 -14 -7 6 3
13 0 22 -7 22 -13 0 -38 65 -28 74 8 9 60 7 66 -2z m46 -2 c0 -5 -4 -10 -10
-10 -5 0 -10 5 -10 10 0 6 5 10 10 10 6 0 10 -4 10 -10z m203 -7 c-7 -2 -19
-2 -25 0 -7 3 -2 5 12 5 14 0 19 -2 13 -5z m997 -3 c-20 -13 -33 -13 -25 0 3
6 14 10 23 10 15 0 15 -2 2 -10z m-1190 -24 c0 -3 -4 -8 -10 -11 -5 -3 -10 -1
-10 4 0 6 5 11 10 11 6 0 10 -2 10 -4z m-158 -27 c-18 -12 -35 -19 -38 -16 -3
3 7 12 23 21 42 23 53 19 15 -5z m1453 -26 c14 -21 32 -48 40 -59 15 -20 14
-23 -1 -39 -16 -16 -18 -16 -31 9 -8 15 -11 31 -8 36 3 6 2 10 -3 10 -6 0 -15
14 -21 31 -21 61 -12 65 24 12z m-1145 13 c0 -22 -18 -29 -22 -9 -3 15 -4 15
-20 -1 -10 -10 -18 -13 -18 -7 0 11 29 30 48 31 6 0 12 -6 12 -14z m611 -50
c-12 -13 -19 -29 -16 -37 3 -8 -5 -20 -17 -28 -22 -14 -23 -13 -5 6 16 18 16
22 2 33 -8 7 -15 17 -15 22 0 6 7 5 15 -2 10 -9 15 -9 15 -1 0 17 3 25 20 44
13 16 15 16 18 2 2 -9 -6 -27 -17 -39z m-711 33 c0 -5 -6 -9 -14 -9 -8 0 -23
-3 -33 -7 -15 -6 -16 -4 -6 8 13 17 53 23 53 8z m1134 -14 c3 -8 1 -15 -3 -15
-5 0 -11 7 -15 15 -3 8 -1 15 3 15 5 0 11 -7 15 -15z m-392 -17 c-8 -8 -9 -15
-1 -25 8 -9 8 -13 0 -13 -18 0 -24 27 -9 43 7 8 15 13 17 11 3 -2 -1 -10 -7
-16z m54 -16 c-17 -16 -18 -16 -5 5 7 12 15 20 18 17 3 -2 -3 -12 -13 -22z
m-796 8 c0 -5 -9 -10 -21 -10 -11 0 -17 5 -14 10 3 6 13 10 21 10 8 0 14 -4
14 -10z m43 -9 c-3 -12 -11 -17 -19 -14 -11 4 -12 9 -3 19 16 20 28 17 22 -5z
m-143 -1 c0 -13 -11 -13 -30 0 -12 8 -11 10 8 10 12 0 22 -4 22 -10z m37 4
c-3 -3 -12 -4 -19 -1 -8 3 -5 6 6 6 11 1 17 -2 13 -5z m63 -33 c0 -11 6 -21
12 -23 9 -3 6 -8 -7 -15 -18 -10 -20 -8 -21 23 0 19 3 34 8 34 4 0 8 -9 8 -19z
m-150 5 c0 -3 -4 -8 -10 -11 -5 -3 -10 -1 -10 4 0 6 5 11 10 11 6 0 10 -2 10
-4z m60 -52 c0 -8 -4 -12 -10 -9 -5 3 -10 10 -10 16 0 5 5 9 10 9 6 0 10 -7
10 -16z m56 7 c-8 -12 -46 -21 -46 -11 0 9 18 18 38 19 7 1 11 -3 8 -8z m1329
-11 c3 -5 -1 -10 -9 -10 -9 0 -16 5 -16 10 0 6 4 10 9 10 6 0 13 -4 16 -10z
m819 -5 c-4 -8 -8 -15 -10 -15 -2 0 -4 7 -4 15 0 8 4 15 10 15 5 0 7 -7 4 -15z
m-2089 -5 c-3 -5 -16 -15 -28 -21 -19 -9 -19 -8 3 10 28 23 34 26 25 11z m728
-5 c-3 -9 -8 -14 -10 -11 -3 3 -2 9 2 15 9 16 15 13 8 -4z m457 -6 c0 -24 -23
-21 -28 4 -2 10 3 17 12 17 10 0 16 -9 16 -21z m-100 1 c0 -5 -5 -10 -11 -10
-5 0 -7 5 -4 10 3 6 8 10 11 10 2 0 4 -4 4 -10z m55 0 c3 -5 -1 -10 -10 -10
-9 0 -13 5 -10 10 3 6 8 10 10 10 2 0 7 -4 10 -10z m-1115 -41 c0 -10 0 -10
-48 -14 -35 -3 -35 1 0 20 24 12 48 9 48 -6z m1162 -6 c-10 -4 -10 -8 -1 -19
9 -11 8 -14 -2 -14 -9 -1 -8 -4 4 -11 9 -6 14 -15 11 -21 -4 -6 0 -15 7 -20
12 -8 12 -10 0 -15 -11 -5 -11 -7 0 -15 11 -7 9 -8 -6 -6 -12 2 -19 11 -19 21
2 21 -9 22 -26 2 -8 -10 -9 -15 -2 -15 6 0 9 -7 6 -15 -8 -21 -21 -19 -27 5
-4 14 3 26 24 41 24 17 27 24 18 35 -17 21 -39 17 -48 -8 -7 -20 -9 -18 -13
15 -2 20 0 37 4 37 4 0 8 -6 8 -12 0 -9 3 -10 8 -2 8 13 31 22 52 22 11 0 11
-1 2 -5z m-1149 -50 c-3 -7 -9 -13 -15 -13 -5 0 -7 -4 -4 -9 7 -10 -49 -27
-73 -22 -8 1 -18 -3 -22 -11 -7 -10 -9 -9 -9 5 0 13 8 17 34 17 19 0 38 5 41
10 3 6 1 10 -6 10 -9 0 -9 3 0 14 15 17 60 16 54 -1z m45 -50 c-10 -12 -4 -17
15 -14 5 1 6 -3 2 -9 -3 -5 -13 -10 -21 -10 -14 0 -13 -2 0 -16 27 -26 17 -74
-15 -74 -20 0 -20 15 -4 120 10 69 16 79 26 46 5 -19 4 -35 -3 -43z m1020 12
c-3 -3 -9 2 -12 12 -6 14 -5 15 5 6 7 -7 10 -15 7 -18z m-363 -5 c-3 -5 -11
-10 -16 -10 -6 0 -7 5 -4 10 3 6 11 10 16 10 6 0 7 -4 4 -10z m15 -40 c0 -5
-4 -10 -10 -10 -5 0 -10 5 -10 10 0 6 5 10 10 10 6 0 10 -4 10 -10z m470 -14
c0 -9 -8 -13 -22 -10 -13 2 -17 2 -10 -2 6 -3 9 -10 6 -15 -3 -6 -11 -5 -20 2
-8 7 -14 7 -14 1 0 -5 -7 -12 -15 -16 -28 -10 -15 14 18 34 38 23 57 25 57 6z
m8 -56 c2 -24 -2 -30 -17 -30 -11 0 -23 5 -26 10 -3 6 -1 10 4 10 6 0 11 6 11
14 0 8 6 17 13 19 6 3 12 6 12 6 1 1 2 -12 3 -29z m-503 0 c-3 -5 -11 -10 -16
-10 -6 0 -7 5 -4 10 3 6 11 10 16 10 6 0 7 -4 4 -10z m-40 -10 c-3 -5 -12 -10
-18 -10 -7 0 -6 4 3 10 19 12 23 12 15 0z m448 -22 c-1 -18 -2 -44 -2 -58 -1
-15 -4 -20 -9 -13 -9 13 -3 103 7 103 3 0 5 -15 4 -32z m34 -8 c2 -23 -12 -27
-20 -6 -3 8 -1 17 6 20 7 2 12 5 12 5 1 1 1 -8 2 -19z m64 -60 c-6 -25 -10
-31 -15 -19 -6 13 -4 44 3 79 1 3 6 -2 11 -10 4 -9 5 -31 1 -50z m-524 18
c-15 -9 -19 -4 -11 16 5 14 9 15 15 5 5 -8 3 -17 -4 -21z m-51 7 c-13 -10 -15
-15 -6 -15 7 0 11 -3 7 -6 -3 -3 -11 -3 -18 2 -9 5 -7 11 6 21 11 7 21 13 24
13 3 0 -3 -7 -13 -15z m321 -52 c-3 -10 -5 -4 -5 12 0 17 2 24 5 18 2 -7 2
-21 0 -30z m206 -21 c-2 -15 0 -22 3 -15 4 10 8 10 19 0 9 -8 10 -16 3 -24 -5
-7 -8 -18 -5 -25 4 -9 6 -7 6 3 1 23 29 32 46 15 12 -11 9 -17 -16 -35 -16
-12 -29 -17 -29 -12 0 6 -7 8 -15 5 -8 -4 -15 -2 -15 2 -1 5 -7 34 -14 65 -13
52 -12 56 4 52 12 -3 16 -12 13 -31z m-473 24 c0 -3 -4 -8 -10 -11 -5 -3 -10
-1 -10 4 0 6 5 11 10 11 6 0 10 -2 10 -4z m430 -31 c0 -14 -2 -25 -4 -25 -2 0
-6 11 -8 25 -3 14 -1 25 3 25 5 0 9 -11 9 -25z m106 -2 c-10 -10 -19 5 -10 18
6 11 8 11 12 0 2 -7 1 -15 -2 -18z m66 -10 c-8 -11 -16 -4 -18 17 -4 23 -3 24
8 5 6 -11 11 -21 10 -22z m-35 5 c-3 -8 -6 -5 -6 6 -1 11 2 17 5 13 3 -3 4
-12 1 -19z m37 -34 c9 -3 16 -15 16 -26 0 -11 5 -28 10 -39 9 -15 7 -19 -5
-19 -9 0 -14 4 -11 9 8 12 -14 71 -25 71 -5 0 -9 -4 -9 -10 0 -5 3 -10 8 -10
4 0 7 -13 7 -30 0 -16 -3 -30 -7 -30 -5 0 -8 6 -8 14 0 7 -3 28 -6 45 -7 32 0
37 30 25z m-154 -29 c0 -8 -4 -15 -8 -15 -5 0 -9 7 -9 15 0 8 4 15 9 15 4 0 8
-7 8 -15z m105 -15 c-3 -5 -1 -18 4 -28 8 -15 4 -22 -20 -36 -40 -24 -69 -72
-69 -116 0 -43 -27 -98 -58 -118 -23 -15 -24 -15 -20 14 2 20 9 30 23 32 29 4
43 31 46 92 4 64 30 131 40 103 5 -15 8 -12 14 12 4 17 14 36 23 43 19 15 25
16 17 2z m-55 -19 c0 -5 -9 -13 -20 -16 -11 -3 -20 -14 -20 -22 0 -19 -13 -9
-16 12 -1 8 4 15 12 15 8 0 14 5 14 10 0 6 7 10 15 10 8 0 15 -4 15 -9z m166
-80 c21 -5 31 -9 22 -10 -9 -1 -20 -6 -24 -13 -4 -6 -3 -8 4 -4 6 3 17 -7 25
-24 15 -28 15 -29 -4 -20 -10 6 -19 15 -19 20 0 5 -18 21 -40 35 -22 14 -40
33 -40 42 0 15 1 15 18 0 10 -9 36 -21 58 -26z m-276 25 c0 -3 -4 -8 -10 -11
-5 -3 -10 -1 -10 4 0 6 5 11 10 11 6 0 10 -2 10 -4z m-370 -20 c0 -11 -19 -15
-25 -6 -3 5 1 10 9 10 9 0 16 -2 16 -4z m367 -48 c-3 -8 -6 -5 -6 6 -1 11 2
17 5 13 3 -3 4 -12 1 -19z m33 -47 c0 -5 -7 -11 -15 -15 -9 -3 -15 0 -15 9 0
8 7 15 15 15 8 0 15 -4 15 -9z m232 -190 c-17 -18 -21 -12 -15 27 5 33 6 33
17 10 9 -18 9 -26 -2 -37z m60 24 c-9 -19 -23 -37 -29 -39 -20 -8 -15 9 7 29
11 10 20 24 20 32 0 7 4 13 10 13 5 0 2 -16 -8 -35z"/>
<path d="M2305 450 c-3 -5 -2 -10 4 -10 5 0 13 5 16 10 3 6 2 10 -4 10 -5 0
-13 -4 -16 -10z"/>
<path d="M3505 2610 c-3 -5 -1 -10 4 -10 6 0 11 5 11 10 0 6 -2 10 -4 10 -3 0
-8 -4 -11 -10z"/>
<path d="M2226 2561 c-4 -7 -5 -15 -2 -18 9 -9 19 4 14 18 -4 11 -6 11 -12 0z"/>
<path d="M2191 2524 c0 -11 3 -14 6 -6 3 7 2 16 -1 19 -3 4 -6 -2 -5 -13z"/>
<path d="M2776 2222 c-3 -4 4 -9 15 -9 23 -2 25 3 4 10 -8 4 -16 3 -19 -1z"/>
<path d="M2097 2063 c-4 -3 -7 -13 -7 -22 1 -13 3 -13 11 2 11 19 8 33 -4 20z"/>
<path d="M2041 1854 c0 -11 3 -14 6 -6 3 7 2 16 -1 19 -3 4 -6 -2 -5 -13z"/>
<path d="M2230 1620 c0 -5 5 -10 11 -10 5 0 7 5 4 10 -3 6 -8 10 -11 10 -2 0
-4 -4 -4 -10z"/>
<path d="M2386 1441 c-3 -5 1 -14 8 -20 12 -10 13 -8 9 8 -6 23 -9 25 -17 12z"/>
<path d="M1080 585 c0 -2 9 -9 20 -15 16 -9 20 -8 20 5 0 8 -9 15 -20 15 -11
0 -20 -2 -20 -5z"/>
</g>
</svg>
